<?xml version="1.0" encoding="UTF-8"?>
<svg version="1.0" xmlns="http://www.w3.org/2000/svg" width="290pt" height="290pt" viewBox="0 0 290 290">
  <!-- Черный фоновый круг -->
  <circle cx="145" cy="145" r="145" fill="#000000" />

  <g transform="translate(0,290) scale(0.1,-0.1)" fill="#ffffff">
    <!-- Центральный верхний элемент (выровнен по центру 1450) -->
    <path d="M1531 2248 c47 -84 103 -187 124 -228 22 -41 66 -124 99 -185 74 -139 273 -539 270 -543 -3 -3 -231 106 -435 207 -79 39 -149 71 -157 71 -12 0 -132 -55 -164 -75 -32 -20 -423 -205 -427 -202 -5 5 170 348 365 717 94 180 224 400 231 395 5 -2 47 -73 94 -157z" />
    
    <!-- Правый нижний элемент -->
    <path d="M1753 1031 c475 -243 497 -256 526 -316 31 -63 160 -369 157 -372 -1 -1 -104 31 -228 71 -216 71 -354 120 -574 207 l-102 40 -7 115 c-6 105 2 364 12 364 2 0 99 -49 216 -109z" />
    
    <!-- Левый нижний элемент (зеркальная копия правого относительно оси 1450) -->
    <path d="M1147 1031 c-475 -243 -497 -256 -526 -316 -31 -63 -160 -369 -157 -372 1 -1 104 31 228 71 216 71 354 120 574 207 l102 40 7 115 c6 105 -2 364 -12 364 -2 0 -99 -49 -216 -109z" />
  </g>
</svg>