<?xml version="1.0" standalone="no"?>
<!DOCTYPE svg PUBLIC "-//W3C//DTD SVG 20010904//EN"
 "http://www.w3.org/TR/2001/REC-SVG-20010904/DTD/svg10.dtd">
<svg version="1.0" xmlns="http://www.w3.org/2000/svg"
 width="289.000000pt" height="294.000000pt" viewBox="0 0 289.000000 294.000000"
 preserveAspectRatio="xMidYMid meet">
<metadata>
Created by potrace 1.16, written by Peter Selinger 2001-2019
</metadata>
<g transform="translate(0.000000,294.000000) scale(0.100000,-0.100000)"
fill="#000000" stroke="none">
<path d="M0 1470 l0 -1470 1445 0 1445 0 0 1470 0 1470 -1445 0 -1445 0 0
-1470z m1493 778 c47 -84 103 -187 124 -228 22 -41 66 -124 99 -185 74 -139
273 -539 270 -543 -3 -3 -231 106 -435 207 -79 39 -149 71 -157 71 -12 0 -132
-55 -164 -75 -32 -20 -423 -205 -427 -202 -5 5 170 348 365 717 94 180 224
400 231 395 5 -2 47 -73 94 -157z m-229 -1270 c3 -84 2 -191 -2 -237 l-7 -84
-75 -29 c-41 -16 -97 -38 -125 -48 -27 -10 -86 -33 -130 -50 -78 -30 -553
-190 -567 -190 -9 0 114 299 165 400 7 14 53 47 117 83 156 87 604 315 611
311 4 -2 9 -72 13 -156z m489 53 c475 -243 497 -256 526 -316 31 -63 160 -369
157 -372 -1 -1 -104 31 -228 71 -216 71 -354 120 -574 207 l-102 40 -7 115
c-6 105 2 364 12 364 2 0 99 -49 216 -109z"/>
</g>
</svg>
