<svg version="1.1" xmlns="http://www.w3.org/2000/svg" width="290" height="290" viewBox="0 0 290 290">
  <circle cx="145" cy="145" r="145" fill="#000000" />
  <g fill="#ffffff">
    <path d="M153.1,57.4 c4.7,8.4,10.3,18.7,12.4,22.8 c2.2,4.1,6.6,12.4,9.9,18.5 c7.4,13.9,27.3,53.9,27,54.3 c-0.3,0.3,-23.1,-10.6,-43.5,-20.7 c-7.9,-3.9,-14.9,-7.1,-15.7,-7.1 c-1.2,0,-13.2,5.5,-16.4,7.5 c-3.2,2,-42.3,20.5,-42.7,20.2 c-0.5,-0.5,17,-34.8,36.5,-71.7 c9.4,-18,22.4,-40,23.1,-39.5 C154.2,51.7,158.4,58.8,153.1,57.4z" />
    <path d="M175.3,179.1 c47.5,24.3,49.7,25.6,52.6,31.6 c3.1,6.3,16,36.9,15.7,37.2 c-0.1,0.1,-10.4,-3.1,-22.8,-7.1 c-21.6,-7.1,-35.4,-12,-57.4,-20.7 l-10.2,-4 l-0.7,-11.5 c-0.6,-10.5,0.2,-36.4,1.2,-36.4 c0.2,0,9.9,4.9,21.6,10.9z" />
    <path d="M114.7,179.1 c-47.5,24.3,-49.7,25.6,-52.6,31.6 c-3.1,6.3,-16,36.9,-15.7,37.2 c0.1,0.1,10.4,-3.1,22.8,-7.1 c21.6,-7.1,35.4,-12,57.4,-20.7 l10.2,-4 l0.7,-11.5 c0.6,-10.5,-0.2,-36.4,-1.2,-36.4 c-0.2,0,-9.9,4.9,-21.6,10.9z" />
  </g>
</svg>